<?xml version="1.0" encoding="UTF-8"?>
<svg id="Layer_2" data-name="Layer 2" xmlns="http://www.w3.org/2000/svg" viewBox="0 0 1086.14 1086.14">
  <defs>
    <style>
      .cls-1 {
        fill: none;
      }

      .cls-2 {
        fill: #17302b;
      }

      .cls-3 {
        fill: #ffedca;
      }
    </style>
  </defs>
  <g id="text">
    <g>
      <circle class="cls-1" cx="543.07" cy="543.07" r="543.07"/>
      <g>
        <path class="cls-2" d="M697.81,543.07c0,42.77-17.3,81.45-45.29,109.45-27.99,27.99-66.68,45.3-109.44,45.3s-81.45-17.31-109.45-45.3c-28-28-45.3-66.68-45.3-109.45s17.3-81.45,45.3-109.44h.01c28-27.99,66.69-45.29,109.44-45.29s81.45,17.3,109.44,45.29c27.99,27.99,45.29,66.67,45.29,109.44Z"/>
        <g>
          <path class="cls-3" d="M517.43,555.64c-7.03,4.64-13.76,9.42-20.79,14.06-4.04,2.84-7.78,5.09-11.82,7.63-1.65,1.05-3.29,1.94-5.53,1.35-1.94-1.05-3.74-2.54-3.14-4.79,1.2-4.34,2.99-8.53,4.64-12.72,4.19-9.72,8.38-19.45,12.72-29.02,4.04-9.57,13.61-28.27,17.95-37.84.45-1.2.9-2.39,2.24-2.99.45.15,2.09.15,2.54.3.45.45.3.75.75.9-.15.45,0,.75-.15.9-1.8,4.04-3.59,7.78-5.39,11.52-4.79,10.77-14.21,30.82-19,41.59l-9.57,22.74c-.6,1.35-1.05,2.84-1.5,4.19-.15.6,0,.9,0,1.94,2.24-1.2,3.89-2.09,5.53-3.29,6.73-4.64,13.46-8.98,20.19-13.61,4.04-2.54,7.78-4.94,11.82-7.33,1.2-.75,7.18-4.34,8.53-4.79.75-.45,1.65-.15,2.39-.15.6.15.9.75,1.05,1.94-2.99.75-11.07,5.83-13.46,7.48Z"/>
          <path class="cls-3" d="M532.99,545.16c-1.05,2.24-2.09,3.89-2.69,6.13-.75,1.95-1.05,3.89-1.2,5.53-.3,1.05,0,2.09.9,3.14,1.35.6,1.5.3,2.69-.3,1.94-1.05,3.59-1.95,5.24-2.99,4.79-3.44,9.42-6.88,14.36-10.62.6-.15,1.05.15,1.35.9.15,1.35-.6,1.95-1.2,2.54-4.64,4.19-9.57,7.93-14.81,11.37-1.65,1.05-3.29,1.5-5.09,2.24-1.35.45-2.69.45-4.04-.15-1.65-.6-2.84-1.64-3.44-3.44-.15-.6-.15-1.35-.6-1.8-.15-4.94,1.65-9.12,3.59-13.16.45-.9.9-1.65,1.65-2.24.45-.45,1.05-.3,1.65-.45,1.05,1.64,2.09,2.24,1.65,3.29ZM533.44,532.9c.75-1.95,1.65-3.89,3.29-5.24,1.65-1.65,3.14-2.99,5.39-3.44.75.45,1.94,1.5,1.8,2.54-1.05,1.65-3.14,2.09-4.49,3.74-1.35,1.35-2.69,2.54-4.34,3.89-.6.15-1.2-.45-1.65-1.5Z"/>
          <path class="cls-3" d="M555.72,552.49c1.35,5.98.75,11.52-.45,17.05-1.2,7.63-3.44,14.51-6.43,21.24l-1.2,2.54-1.35,1.35c-.45.15-1.2.15-2.24.15l-2.24-1.79c0-.6-.15-.9-.15-1.35-.45-3.74.3-7.33.9-10.92,1.65-8.23,3.59-15.86,5.98-23.64,1.05-2.99,1.5-5.83,2.54-8.82l1.5-4.04c2.24-7.33,4.79-14.21,7.63-20.94.6-1.2,1.2-2.54,1.94-3.74.45-.75,1.2-1.05,1.8-1.65,1.05.6,1.5.9,1.94,1.35.75,2.24.15,3.44-.9,4.79-.45,1.05-1.2,1.35-1.35,2.39l-7.03,19.45c0,.45.15.75.15,1.35,6.88,1.5,13.31-.45,20.34-1.2l1.5,1.5c.3.75.15,1.35-.6,1.5-1.65.45-3.29.45-5.09.9-4.94,1.05-9.87,2.69-15.11,1.35-.75-.15-1.35-.3-2.09.15-.15.45-.15.75,0,1.05ZM547.05,584.66c3.29-7.33,5.68-18.1,5.68-24.68-2.24,5.24-3.14,10.02-4.49,14.96-.75,2.99-1.65,5.98-1.5,9.42l.3.3Z"/>
          <path class="cls-3" d="M585.34,536.94c1.05-.6,2.54-.9,3.74-1.35,1.35-.3,2.54,0,3.59.75,1.94,1.2,2.39,2.84,1.35,4.94-.6,1.35-1.5,2.09-2.54,3.14-2.99,2.24-6.28,3.89-9.87,5.09-.45,0-.75.3-1.2.45-8.97,20.94,17.65,5.24,26.03-3.14,1.65-1.05,1.94-.9,3.59.75-.45.6-.6,1.5-1.2,1.95-9.27,6.43-15.86,14.51-27.52,14.51-9.72-.75-7.63-9.12-5.24-15.86,1.8-4.94,4.94-8.68,9.27-11.22ZM584,543.37c-.45.45-1.05.9-.45,1.94,2.24-.9,4.49-2.24,6.43-4.04.6-.6,1.35-1.05.9-2.39-2.99.6-5.09,2.24-6.88,4.49Z"/>
        </g>
        <g>
          <path class="cls-3" d="M434.11,481.1c-.35.62-.74,1.12-1.15,1.51-.41.38-.84.67-1.28.85-.44.18-.89.27-1.36.26-.46,0-.93-.1-1.39-.27l1.01-1.76c.29.09.59.14.88.15s.57-.03.84-.11c.27-.09.52-.23.75-.42.24-.19.45-.45.63-.78.12-.21.22-.44.29-.68.08-.24.11-.47.1-.7,0-.23-.07-.44-.17-.64s-.28-.36-.53-.5c-.31-.17-.62-.25-.95-.23-.33.02-.67.11-1.01.25-.34.15-.69.34-1.05.57s-.72.48-1.09.73c-.37.25-.74.48-1.12.71-.38.22-.76.4-1.14.53-.38.13-.76.19-1.14.18-.38,0-.76-.12-1.14-.34-.41-.24-.74-.54-.99-.92-.25-.38-.4-.81-.46-1.3-.06-.49-.03-1.02.11-1.6.14-.58.38-1.18.74-1.81.3-.52.64-.95,1.02-1.29.38-.34.79-.6,1.23-.78.44-.18.89-.28,1.35-.31.46-.03.92.01,1.38.12l-.91,1.6c-.3-.05-.59-.07-.89-.08-.29,0-.58.03-.84.12-.27.08-.53.22-.77.42-.25.2-.47.47-.67.82-.19.33-.3.63-.35.91s-.04.52.02.74.15.4.28.55c.13.16.28.28.43.37.28.16.57.22.89.18.32-.04.65-.13.99-.29s.7-.36,1.07-.6.75-.49,1.12-.74.76-.49,1.16-.72c.39-.23.78-.41,1.17-.54.39-.13.77-.2,1.15-.2.38,0,.75.1,1.1.3.42.24.77.55,1.03.93.26.38.43.82.5,1.31.07.49.04,1.04-.1,1.63-.14.59-.39,1.22-.77,1.88Z"/>
          <path class="cls-3" d="M433.72,459.67l.83.59-3.45,4.88,3.21,2.27,2.87-4.05.83.59-2.87,4.05,3.86,2.73,3.45-4.88,1,.71-5.14,7.27-9.73-6.88,5.14-7.27Z"/>
          <path class="cls-3" d="M436.25,456.52l1.91-2.22,8.11,6.97,3.96-4.61.93.8-5.87,6.83-9.04-7.77Z"/>
          <path class="cls-3" d="M451.38,440.58l.71.73-4.31,4.15,2.73,2.83,3.58-3.44.71.73-3.58,3.44,3.28,3.41,4.31-4.15.85.88-6.41,6.17-8.27-8.59,6.41-6.17Z"/>
          <path class="cls-3" d="M460.52,440.69c.47.61.98,1.08,1.53,1.41s1.1.53,1.65.61c.55.08,1.09.05,1.62-.09.53-.14,1-.38,1.44-.71.33-.25.59-.55.79-.88.2-.33.35-.69.44-1.08s.16-.79.18-1.21c.02-.42.02-.85,0-1.29l1.51-.04c.05.5.05,1.01,0,1.55-.05.54-.17,1.07-.36,1.59s-.44,1.02-.76,1.49c-.32.47-.72.9-1.21,1.27-.81.63-1.65,1.09-2.52,1.38-.87.29-1.71.41-2.54.36-.83-.05-1.62-.27-2.36-.66-.75-.39-1.41-.96-1.98-1.7-.55-.72-.93-1.48-1.13-2.29s-.23-1.62-.09-2.42c.14-.81.45-1.6.93-2.36.48-.76,1.13-1.46,1.94-2.08.54-.42,1.09-.74,1.64-.96.55-.22,1.09-.36,1.64-.42.54-.06,1.08-.04,1.61.04.53.09,1.05.24,1.57.44l-.45,1.43c-.42-.13-.84-.23-1.27-.3-.43-.07-.85-.1-1.25-.08s-.8.08-1.18.2-.72.3-1.04.54c-.43.33-.78.73-1.05,1.2s-.43.97-.48,1.52.02,1.12.2,1.73c.18.6.51,1.21.99,1.83Z"/>
          <path class="cls-3" d="M476.95,422.44l.53.87-3.53,2.13,5.63,9.33-2.5,1.51-5.63-9.33-3.54,2.13-.53-.87,9.56-5.77Z"/>
          <path class="cls-3" d="M491.59,415.57l5.56,3.64,1.55-6.32,1.85-.7-1.98,7.97,1.81,4.82-2.74,1.03-1.75-4.66-7.18-4.72,2.86-1.08Z"/>
          <path class="cls-3" d="M513.01,421.45c-.93.23-1.84.29-2.72.19-.88-.1-1.69-.35-2.41-.75s-1.35-.93-1.87-1.59c-.52-.66-.89-1.44-1.11-2.34-.22-.88-.25-1.72-.09-2.54s.47-1.56.93-2.23c.46-.67,1.06-1.25,1.8-1.74.74-.49,1.57-.85,2.5-1.08.93-.23,1.84-.3,2.71-.2s1.68.33,2.4.71,1.35.89,1.87,1.53c.52.64.89,1.39,1.1,2.26.15.61.22,1.21.2,1.79-.02.58-.12,1.13-.29,1.66-.17.53-.41,1.02-.72,1.47-.31.46-.68.87-1.11,1.24-.43.37-.91.69-1.45.97s-1.11.49-1.73.64ZM512.77,420.48c.56-.14,1.03-.39,1.4-.76.37-.37.64-.81.82-1.34.18-.53.26-1.12.26-1.79,0-.67-.1-1.37-.28-2.12-.18-.73-.42-1.39-.72-1.96-.3-.57-.65-1.04-1.05-1.41-.4-.37-.84-.62-1.34-.76-.49-.14-1.02-.14-1.58,0-.57.14-1.04.39-1.41.74s-.65.78-.83,1.29c-.18.51-.27,1.09-.27,1.73s.09,1.33.27,2.07c.18.75.43,1.41.73,2.01s.66,1.08,1.06,1.46c.4.38.85.65,1.35.8s1.03.16,1.6.02Z"/>
          <path class="cls-3" d="M521.75,407.18l2.91-.34.88,7.61c.05.45.17.87.36,1.26.19.39.43.71.73.98.3.27.65.47,1.04.6.4.13.83.17,1.3.11.46-.05.87-.19,1.22-.41.35-.22.64-.49.87-.82.23-.33.39-.7.49-1.12.1-.42.12-.85.07-1.31l-.88-7.61,1.83-.21.88,7.61c.07.61.03,1.2-.11,1.77-.14.57-.41,1.08-.81,1.54s-.93.85-1.59,1.17c-.67.32-1.48.53-2.46.65-.87.1-1.65.07-2.34-.09-.69-.16-1.29-.42-1.78-.78-.5-.36-.89-.8-1.18-1.32-.29-.52-.48-1.09-.55-1.71l-.88-7.59Z"/>
          <path class="cls-3" d="M537.81,405.71l4.48-.07c.77-.01,1.45.06,2.03.21.58.15,1.06.37,1.45.65.39.28.68.62.88,1.02.2.4.3.83.31,1.3,0,.34-.06.66-.18.97s-.31.58-.54.84-.52.49-.85.69c-.33.2-.7.37-1.1.51l4.34,5.63-3.18.05-4.09-5.32h-.52s.09,5.4.09,5.4l-2.93.05-.19-11.92ZM540.82,411.15h.63c.36-.02.69-.07.99-.18s.56-.25.78-.44.39-.42.51-.69c.12-.27.18-.58.17-.92,0-.32-.06-.61-.16-.87-.1-.26-.24-.49-.41-.67-.17-.19-.38-.33-.62-.43s-.5-.15-.78-.15l-1.19.02.07,4.32Z"/>
          <path class="cls-3" d="M557.44,406.21l2.81.44,2.83,8.67,5.26-7.42,2.75.43-1.82,11.78-2.88-.45,1.19-7.68-5.04,7.08-1.11-.17-2.78-8.38-1.2,7.76-1.83-.28,1.82-11.78Z"/>
          <path class="cls-3" d="M581.97,410.96l2,13.24-2.87-.83-.53-3.54-4.45-1.28-2.4,2.69-1.91-.55,8.95-10.08,1.22.35ZM576.95,417.64l3.45.99-.63-4.19-2.81,3.2Z"/>
          <path class="cls-3" d="M590.8,414.14l2.73,1.04-4.26,11.13-2.73-1.04,4.26-11.13Z"/>
          <path class="cls-3" d="M598.28,417.07l1.68.82,2.81,9.78,3.31-6.82,1.64.8-5.28,10.88-1.13-.55-2.99-10.75-3.58,7.37-1.67-.81,5.2-10.72Z"/>
          <path class="cls-3" d="M613.64,439.46c-.59-.4-1.06-.82-1.41-1.27-.35-.44-.59-.89-.74-1.34s-.19-.91-.15-1.37.17-.92.38-1.36l1.68,1.15c-.11.29-.18.57-.22.86-.03.29-.02.57.04.85.06.27.18.54.36.79.17.25.42.48.72.69.2.14.42.25.65.35.23.09.46.15.69.15s.44-.03.65-.12c.2-.09.39-.25.54-.49.2-.29.3-.6.31-.93,0-.33-.05-.67-.17-1.03-.12-.35-.28-.72-.49-1.09-.21-.37-.42-.75-.64-1.14-.22-.39-.42-.78-.62-1.17-.19-.39-.34-.78-.43-1.17s-.12-.77-.08-1.15c.04-.38.18-.75.43-1.11.27-.39.6-.7,1-.91.4-.21.84-.33,1.33-.36.49-.02,1.02.06,1.58.24s1.15.48,1.75.89c.49.34.89.71,1.2,1.12.31.41.54.84.68,1.29s.21.91.2,1.37-.09.92-.23,1.36l-1.52-1.04c.07-.29.12-.58.15-.88.03-.29.01-.58-.05-.85s-.18-.54-.36-.8-.43-.5-.77-.73c-.31-.21-.61-.35-.88-.42-.27-.06-.52-.08-.73-.04-.22.04-.41.12-.58.23-.17.12-.3.25-.4.4-.18.26-.26.55-.25.87,0,.32.08.66.21,1.01.13.36.3.73.51,1.12s.43.78.65,1.18c.22.4.43.8.63,1.21.2.41.35.81.45,1.21.1.4.14.78.11,1.16-.03.38-.16.73-.39,1.07-.27.4-.61.72-1.01.95-.4.23-.85.36-1.35.4s-1.04-.04-1.62-.23c-.58-.18-1.19-.49-1.81-.92Z"/>
          <path class="cls-3" d="M626.68,441.54c-.5.59-.86,1.18-1.07,1.78-.21.6-.3,1.18-.27,1.74s.17,1.08.42,1.56c.25.49.58.91.99,1.26.32.27.66.47,1.02.6.37.13.75.2,1.15.22.4.02.81,0,1.23-.07.42-.06.84-.15,1.26-.26l.34,1.48c-.47.15-.98.25-1.52.3-.54.05-1.08.04-1.63-.03-.55-.08-1.08-.22-1.61-.44-.53-.22-1.02-.53-1.49-.93-.78-.67-1.39-1.4-1.85-2.19s-.75-1.6-.87-2.42c-.12-.82-.06-1.64.17-2.45.23-.81.66-1.57,1.27-2.28.59-.69,1.26-1.21,2.01-1.57.75-.36,1.54-.55,2.36-.57.82-.02,1.65.12,2.5.44.84.32,1.66.81,2.43,1.48.52.45.94.92,1.27,1.41.33.49.57,1,.74,1.52.17.52.26,1.05.28,1.59s-.02,1.08-.12,1.62l-1.49-.15c.04-.44.05-.87.04-1.3s-.08-.85-.17-1.25c-.1-.4-.24-.77-.43-1.11s-.44-.65-.74-.91c-.41-.36-.87-.62-1.38-.79-.51-.17-1.04-.22-1.58-.16-.55.06-1.1.24-1.65.54-.55.3-1.08.75-1.59,1.33Z"/>
          <path class="cls-3" d="M647.05,453.04l-.75.7-4.08-4.37-2.87,2.68,3.39,3.63-.75.7-3.39-3.63-3.46,3.22,4.08,4.37-.89.83-6.07-6.51,8.72-8.13,6.07,6.51Z"/>
          <path class="cls-3" d="M649.71,456.2l1.13,1.49-1.96,9.99,6.05-4.56,1.1,1.46-9.66,7.28-.76-1,2.23-10.93-6.54,4.93-1.12-1.48,9.51-7.18Z"/>
          <path class="cls-3" d="M664.14,477.72l-.88.52-2.11-3.54-9.37,5.57-1.49-2.51,9.37-5.57-2.11-3.55.88-.52,5.71,9.6Z"/>
        </g>
        <g>
          <path class="cls-3" d="M436.01,620.65c-.62.47-1.09.97-1.42,1.52-.33.54-.54,1.09-.62,1.64-.08.55-.06,1.09.08,1.62.14.53.37,1.01.7,1.44.25.33.54.6.88.8.33.2.69.35,1.08.45s.79.16,1.21.19c.42.02.85.03,1.29.01l.02,1.51c-.5.05-1.01.04-1.55-.02-.54-.06-1.07-.18-1.58-.37-.52-.19-1.01-.45-1.48-.77-.47-.33-.89-.73-1.26-1.22-.62-.82-1.07-1.66-1.36-2.53-.28-.87-.4-1.72-.34-2.55s.28-1.61.68-2.36c.4-.74.97-1.4,1.71-1.96.72-.55,1.49-.92,2.3-1.12.81-.2,1.62-.22,2.42-.07.81.15,1.59.46,2.35.95.76.49,1.45,1.14,2.07,1.96.42.55.73,1.09.95,1.64.21.55.35,1.1.41,1.64s.04,1.08-.06,1.61c-.09.53-.24,1.05-.45,1.56l-1.43-.46c.13-.42.24-.84.31-1.27.07-.43.1-.84.09-1.25-.01-.41-.08-.8-.19-1.18s-.29-.72-.53-1.04c-.33-.43-.73-.79-1.19-1.06-.46-.27-.97-.43-1.51-.49-.55-.06-1.12,0-1.73.19-.61.18-1.22.5-1.83.97Z"/>
          <path class="cls-3" d="M446.13,633.37l-4.08,3.94-2.03-2.11,8.57-8.28,2.03,2.11-3.76,3.63,3.33,3.45,3.76-3.63,2.01,2.09-8.57,8.28-2.01-2.09,4.08-3.94-3.33-3.45Z"/>
          <path class="cls-3" d="M463.36,640.63l-3.45,12.93-2.3-1.91.92-3.46-3.57-2.95-3.28,1.51-1.53-1.27,12.23-5.67.98.81ZM456.1,644.75l2.76,2.29,1.09-4.09-3.86,1.81Z"/>
          <path class="cls-3" d="M469.63,645.84l3.73,2.48c.64.43,1.16.87,1.55,1.32s.67.91.83,1.36c.16.45.21.9.15,1.34-.06.44-.22.85-.48,1.24-.19.28-.42.51-.7.69-.28.18-.58.31-.92.39-.34.08-.7.11-1.09.09-.39-.02-.79-.09-1.2-.21l.38,7.1-2.65-1.76-.35-6.7-.43-.29-2.98,4.49-2.44-1.62,6.6-9.92ZM469.03,652.02l.53.35c.3.2.6.34.91.43s.61.11.89.08c.29-.03.56-.12.81-.28.25-.15.47-.37.66-.66.17-.26.3-.53.36-.8s.08-.54.04-.79c-.04-.25-.12-.49-.27-.71s-.33-.41-.56-.56l-.99-.66-2.4,3.6Z"/>
          <path class="cls-3" d="M485.42,655.12l-.68,13.37-2.65-1.38.18-3.57-4.1-2.15-2.89,2.16-1.76-.92,10.79-8.09,1.12.59ZM479.17,660.66l3.18,1.66.22-4.23-3.4,2.57Z"/>
          <path class="cls-3" d="M492.9,665.43c-.28.72-.41,1.4-.41,2.04,0,.64.12,1.21.33,1.73.22.51.52.96.92,1.33s.85.66,1.36.86c.39.15.78.22,1.16.22.39,0,.77-.07,1.15-.18s.76-.28,1.13-.48c.37-.2.74-.42,1.1-.67l.82,1.28c-.4.3-.84.57-1.33.8s-1,.41-1.54.52c-.54.11-1.1.15-1.67.12-.57-.03-1.14-.15-1.71-.37-.96-.37-1.79-.85-2.48-1.44-.7-.59-1.24-1.25-1.63-1.98-.39-.73-.61-1.52-.66-2.36-.05-.84.09-1.7.42-2.57.33-.85.78-1.57,1.37-2.16.58-.59,1.26-1.04,2.03-1.33.76-.3,1.6-.44,2.5-.43.9.01,1.83.21,2.79.57.64.25,1.2.55,1.67.9s.88.75,1.21,1.18c.33.43.6.9.8,1.4.2.5.35,1.02.44,1.57l-1.46.36c-.11-.42-.24-.84-.4-1.24-.16-.4-.36-.77-.58-1.11-.23-.34-.49-.64-.78-.9-.3-.26-.63-.46-1-.61-.51-.2-1.03-.29-1.57-.27-.54.01-1.05.14-1.54.38-.49.24-.95.6-1.37,1.07-.42.47-.77,1.07-1.05,1.79Z"/>
          <path class="cls-3" d="M516.7,666.67l-.26.99-3.99-1.04-2.74,10.55-2.83-.73,2.74-10.55-4-1.04.26-.99,10.81,2.8Z"/>
          <path class="cls-3" d="M528.31,668.55l-.16,1.01-5.9-.93-.61,3.88,4.91.77-.16,1.01-4.91-.77-.73,4.67,5.9.93-.19,1.21-8.79-1.38,1.85-11.77,8.8,1.38Z"/>
          <path class="cls-3" d="M531.11,668.82l4.47.27c.77.05,1.44.17,2.01.36.57.19,1.03.45,1.4.76.37.31.63.67.8,1.08.17.41.24.85.21,1.32-.02.34-.1.66-.25.95-.15.29-.35.56-.6.8s-.55.45-.9.62c-.35.18-.73.32-1.14.42l3.9,5.95-3.18-.19-3.67-5.62-.52-.03-.32,5.38-2.92-.17.71-11.9ZM533.7,674.47l.63.04c.36.02.69,0,1-.09.31-.08.58-.21.81-.38.23-.17.42-.39.56-.65s.22-.56.24-.9c.02-.32-.01-.61-.09-.88-.08-.27-.2-.5-.36-.7s-.35-.36-.59-.48c-.23-.12-.49-.19-.77-.2l-1.18-.07-.26,4.32Z"/>
          <path class="cls-3" d="M558.91,680.55c-.44.04-.91,0-1.38-.14-.48-.13-.96-.33-1.45-.6-.47.36-.99.65-1.56.87-.57.22-1.23.36-1.98.43-.6.05-1.13.03-1.61-.06-.48-.09-.89-.25-1.23-.45-.34-.21-.61-.47-.81-.79-.2-.31-.31-.67-.34-1.05-.04-.43.01-.82.16-1.19s.34-.71.6-1.03c.26-.32.56-.62.91-.91s.71-.56,1.1-.83c-.21-.43-.39-.85-.53-1.28-.14-.42-.22-.84-.26-1.24-.04-.4.01-.79.15-1.19.13-.39.34-.75.62-1.07.28-.32.63-.59,1.04-.81.41-.22.89-.35,1.42-.4.36-.03.73-.02,1.1.04.37.06.71.18,1.02.35.31.17.56.4.77.7.21.3.33.66.37,1.1.03.39-.03.76-.19,1.1-.16.34-.38.67-.67.98-.29.31-.61.61-.99.89-.37.28-.75.56-1.14.83.29.51.61,1,.97,1.48.36.47.74.91,1.15,1.3.24-.29.46-.59.68-.9.21-.31.4-.62.58-.92.17-.31.33-.6.46-.88.13-.28.24-.54.33-.78l1.42.78c-.35.67-.71,1.32-1.07,1.95-.36.63-.76,1.2-1.19,1.74.32.2.63.35.94.46.31.1.61.14.9.12.25-.02.47-.08.65-.18.18-.09.34-.22.47-.37.13-.15.24-.33.34-.53.09-.2.18-.42.26-.66l1.09.37c-.19.91-.54,1.58-1.05,2.01-.51.44-1.19.7-2.03.77ZM552.91,679.67c.33-.03.64-.11.95-.24.3-.13.6-.3.89-.52-.49-.38-.95-.8-1.39-1.26-.44-.46-.84-.95-1.2-1.46-.36.31-.64.63-.85.96-.21.33-.3.68-.26,1.06.02.21.07.41.15.6.08.19.2.35.35.49.15.14.34.24.56.31s.49.09.8.06ZM552.98,671.85c.02.23.06.48.12.73.06.25.15.52.25.79.24-.18.47-.36.67-.55s.38-.38.52-.58c.14-.2.25-.41.33-.62.07-.21.1-.43.08-.67-.02-.21-.06-.38-.11-.52-.06-.14-.13-.24-.21-.33-.09-.08-.19-.13-.3-.16s-.24-.03-.36-.02c-.16.01-.3.07-.43.18s-.24.24-.33.41c-.09.17-.16.37-.19.6-.04.23-.05.48-.02.74Z"/>
          <path class="cls-3" d="M572.77,672.23l1.37,5.51-2.84.71-2.87-11.57,2.84-.7,1.26,5.07,4.65-1.15-1.26-5.07,2.81-.7,2.87,11.57-2.81.7-1.37-5.51-4.65,1.15Z"/>
          <path class="cls-3" d="M587.66,660.95l9.48,9.45-2.8,1.04-2.53-2.53-4.34,1.61-.33,3.59-1.86.69,1.21-13.43,1.19-.44ZM587.59,669.3l3.36-1.25-3-2.99-.36,4.24Z"/>
          <path class="cls-3" d="M595.3,658.12l4.01-2c.69-.34,1.33-.57,1.92-.69.59-.11,1.12-.12,1.59-.04.47.09.88.27,1.24.54.35.27.63.62.84,1.04.15.3.24.62.25.95.02.33-.03.66-.12.99s-.26.66-.47.99c-.21.33-.47.64-.78.93l6.34,3.22-2.85,1.42-5.98-3.04-.46.23,2.4,4.82-2.62,1.3-5.31-10.67ZM600.37,661.72l.57-.28c.32-.16.59-.35.82-.58s.4-.47.52-.73c.12-.26.17-.54.17-.84,0-.3-.09-.6-.24-.9-.14-.28-.31-.52-.52-.71-.2-.19-.42-.34-.66-.43s-.49-.14-.75-.12c-.26.01-.52.08-.77.21l-1.06.53,1.93,3.87Z"/>
          <path class="cls-3" d="M606.53,652.45l2.38-1.56,7.92,4.54-1.08-9.03,2.33-1.53,6.54,9.96-2.44,1.6-4.27-6.49,1.01,8.63-.94.62-7.68-4.36,4.32,6.57-1.55,1.02-6.54-9.96Z"/>
          <path class="cls-3" d="M633.94,647.49c-.73.63-1.5,1.1-2.33,1.42-.83.31-1.66.46-2.49.44-.83-.02-1.62-.21-2.39-.56-.77-.35-1.46-.88-2.06-1.57-.59-.68-1-1.42-1.24-2.22s-.29-1.6-.19-2.41.37-1.6.81-2.37c.43-.77,1.01-1.47,1.73-2.1.72-.63,1.5-1.11,2.32-1.42.82-.32,1.64-.47,2.46-.47.82,0,1.6.17,2.36.5.76.33,1.43.83,2.01,1.51.42.48.75.98,1,1.5.25.53.42,1.06.5,1.61s.1,1.09.03,1.64c-.07.55-.21,1.09-.42,1.61s-.5,1.04-.85,1.52-.77.94-1.25,1.36ZM633.29,646.74c.44-.38.74-.82.9-1.31.16-.49.2-1.01.12-1.56-.08-.55-.28-1.12-.59-1.71-.31-.59-.71-1.17-1.22-1.75-.5-.57-1.01-1.04-1.54-1.41-.53-.37-1.05-.63-1.58-.77-.52-.14-1.03-.17-1.53-.06s-.97.34-1.41.72c-.44.38-.75.82-.92,1.3-.17.48-.22.99-.15,1.53.07.54.25,1.09.55,1.66.3.57.69,1.14,1.19,1.71.5.58,1.03,1.06,1.57,1.45.54.39,1.08.66,1.61.82s1.05.19,1.57.1c.51-.09.99-.33,1.43-.71Z"/>
          <path class="cls-3" d="M633.49,631.32l1.25-1.39h10.18s-5.63-5.05-5.63-5.05l1.22-1.36,9,8.08-.84.93-11.16-.1,6.09,5.48-1.24,1.38-8.86-7.97Z"/>
          <path class="cls-3" d="M643.89,619.13l6.65-.06-2.22-6.12,1.15-1.61,2.79,7.73,4.19,3-1.7,2.38-4.05-2.9-8.59.07,1.78-2.49Z"/>
        </g>
      </g>
    </g>
  </g>
</svg>